{
  "source": "C:\\Users\\Peter\\Desktop\\stuff\\MIUN\\quantitative_research\\video_compression\\videos\\BVI-HD\\BVI-HD_CDVL_videos\\ORIG\\PaintingTilting_1920x1080_60fps.mp4",
  "output": "C:\\Users\\Peter\\Desktop\\stuff\\MIUN\\quantitative_research\\video_compression\\compressed_videos\\BVI-HD\\av1\\2\\PaintingTilting_1920x1080_60fps_av1.mkv",
  "codec": "av1",
  "ok": "Input #0, mov,mp4,m4a,3gp,3g2,mj2, from 'C:\\Users\\Peter\\Desktop\\stuff\\MIUN\\quantitative_research\\video_compression\\videos\\BVI-HD\\BVI-HD_CDVL_videos\\ORIG\\PaintingTilting_1920x1080_60fps.mp4':\n  Metadata:\n    major_brand     : isom\n    minor_version   : 512\n    compatible_brands: isomiso2avc1mp41\n    encoder         : Lavf54.28.101\n  Duration: 00:00:05.00, start: 0.000000, bitrate: 667707 kb/s\n  Stream #0:0[0x1](und): Video: h264 (High 4:4:4 Predictive) (avc1 / 0x31637661), yuv420p(progressive), 1920x1080, 667702 kb/s, 60 fps, 60 tbr, 60 tbn (default)\n    Metadata:\n      handler_name    : VideoHandler\n      vendor_id       : [0][0][0][0]\n[out#0/matroska @ 0000023747d99000] Codec AVOption b:a (set bitrate (in bits/s)) has not been used for any stream. The most likely reason is either wrong type (e.g. a video option with no video streams) or that it is a private option of some decoder which was not actually used for any stream.\nStream mapping:\n  Stream #0:0 -> #0:0 (h264 (native) -> av1 (libsvtav1))\nPress [q] to stop, [?] for help\nSvt[info]: -------------------------------------------\nSvt[info]: SVT [version]:\tSVT-AV1 Encoder Lib v3.1.0-19-g6ecfe8ec\nSvt[info]: SVT [build]  :\tGCC 15.2.0\t 64 bit\nSvt[info]: LIB Build date: Aug 17 2025 11:37:13\nSvt[info]: -------------------------------------------\nSvt[info]: Level of Parallelism: 5\nSvt[info]: Number of PPCS 93\nSvt[info]: [asm level on system : up to avx2]\nSvt[info]: [asm level selected : up to avx2]\nSvt[info]: -------------------------------------------\nSvt[info]: SVT [config]: main profile\ttier (auto)\tlevel (auto)\nSvt[info]: SVT [config]: width / height / fps numerator / fps denominator \t\t: 1920 / 1080 / 60 / 1\nSvt[info]: SVT [config]: bit-depth / color format \t\t\t\t\t: 8 / YUV420\nSvt[info]: SVT [config]: preset / tune / pred struct \t\t\t\t\t: 4 / PSNR / random access\nSvt[info]: SVT [config]: gop size / mini-gop size / key-frame type \t\t\t: 321 / 16 / key frame\nSvt[info]: SVT [config]: BRC mode / target bitrate (kbps)\t\t\t\t: VBR / 2000 \nSvt[info]: SVT [config]: AQ mode / Variance Boost \t\t\t\t\t: 2 / 0\nSvt[info]: SVT [config]: sharpness / luminance-based QP bias \t\t\t\t: 0 / 0\nSvt[info]: SVT [config]: QP scale compress strength \t\t\t\t\t: 0\nSvt[info]: -------------------------------------------\nOutput #0, matroska, to 'C:\\Users\\Peter\\Desktop\\stuff\\MIUN\\quantitative_research\\video_compression\\compressed_videos\\BVI-HD\\av1\\2\\PaintingTilting_1920x1080_60fps_av1.mkv':\n  Metadata:\n    major_brand     : isom\n    minor_version   : 512\n    compatible_brands: isomiso2avc1mp41\n    encoder         : Lavf62.3.100\n  Stream #0:0(und): Video: av1 (AV01 / 0x31305641), yuv420p(tv, progressive), 1920x1080, q=2-31, 2000 kb/s, 60 fps, 1k tbn (default)\n    Metadata:\n      encoder         : Lavc62.11.100 libsvtav1\n      handler_name    : VideoHandler\n      vendor_id       : [0][0][0][0]\n    Side data:\n      cpb: bitrate max/min/avg: 0/0/2000000 buffer size: 2000000 vbv_delay: N/A\nframe=    0 fps=0.0 q=0.0 size=       0KiB time=N/A bitrate=N/A speed=N/A elapsed=0:00:01.02    \nframe=    0 fps=0.0 q=0.0 size=       0KiB time=N/A bitrate=N/A speed=N/A elapsed=0:00:01.55    \nframe=    0 fps=0.0 q=0.0 size=       0KiB time=N/A bitrate=N/A speed=N/A elapsed=0:00:02.12    \nframe=    0 fps=0.0 q=0.0 size=       0KiB time=N/A bitrate=N/A speed=N/A elapsed=0:00:02.68    \nframe=    0 fps=0.0 q=0.0 size=       0KiB time=N/A bitrate=N/A speed=N/A elapsed=0:00:03.20    \nframe=    1 fps=0.3 q=26.0 size=       1KiB time=00:00:00.00 bitrate=N/A speed=   0x elapsed=0:00:03.70    \nframe=    3 fps=0.7 q=50.0 size=       1KiB time=00:00:00.01 bitrate= 341.8kbits/s speed=0.00394x elapsed=0:00:04.23    \nframe=   12 fps=2.5 q=52.0 size=       1KiB time=00:00:00.18 bitrate=  31.1kbits/s speed=0.0381x elapsed=0:00:04.81    \nframe=   22 fps=4.1 q=50.0 size=       1KiB time=00:00:00.33 bitrate=  17.1kbits/s speed=0.0624x elapsed=0:00:05.34    \nframe=   29 fps=4.9 q=46.0 size=       1KiB time=00:00:00.46 bitrate=  12.2kbits/s speed=0.0794x elapsed=0:00:05.87    \nframe=   38 fps=5.9 q=50.0 size=       1KiB time=00:00:00.61 bitrate=   9.2kbits/s speed=0.0962x elapsed=0:00:06.41    \nframe=   47 fps=6.8 q=49.0 size=       1KiB time=00:00:00.76 bitrate=   7.4kbits/s speed=0.11x elapsed=0:00:06.94    \nframe=   58 fps=7.7 q=50.0 size=       1KiB time=00:00:00.93 bitrate=   6.1kbits/s speed=0.125x elapsed=0:00:07.48    \nframe=   67 fps=8.3 q=48.0 size=       1KiB time=00:00:01.10 bitrate=   5.2kbits/s speed=0.137x elapsed=0:00:08.02    \nframe=   78 fps=9.1 q=50.0 size=       1KiB time=00:00:01.28 bitrate=   4.4kbits/s speed=0.15x elapsed=0:00:08.53    \nframe=   86 fps=9.5 q=50.0 size=       1KiB time=00:00:01.41 bitrate=   4.0kbits/s speed=0.156x elapsed=0:00:09.09    \nframe=   96 fps=9.9 q=50.0 size=       1KiB time=00:00:01.56 bitrate=   3.6kbits/s speed=0.162x elapsed=0:00:09.64    \nframe=  103 fps= 10 q=48.0 size=       1KiB time=00:00:01.70 bitrate=   3.4kbits/s speed=0.167x elapsed=0:00:10.20    \nframe=  110 fps= 10 q=50.0 size=       1KiB time=00:00:01.80 bitrate=   3.2kbits/s speed=0.167x elapsed=0:00:10.76    \nframe=  117 fps= 10 q=46.0 size=       1KiB time=00:00:01.93 bitrate=   2.9kbits/s speed=0.171x elapsed=0:00:11.32    \nframe=  126 fps= 11 q=50.0 size=       1KiB time=00:00:02.05 bitrate=   2.8kbits/s speed=0.172x elapsed=0:00:11.89    \nframe=  131 fps= 10 q=45.0 size=       1KiB time=00:00:02.16 bitrate=   2.6kbits/s speed=0.173x elapsed=0:00:12.50    \nframe=  135 fps= 10 q=44.0 size=       1KiB time=00:00:02.21 bitrate=   2.6kbits/s speed=0.169x elapsed=0:00:13.12    \nframe=  139 fps= 10 q=43.0 size=       1KiB time=00:00:02.30 bitrate=   2.5kbits/s speed=0.168x elapsed=0:00:13.71    \nframe=  145 fps= 10 q=29.0 size=       1KiB time=00:00:02.40 bitrate=   2.4kbits/s speed=0.168x elapsed=0:00:14.27    \nframe=  149 fps= 10 q=38.0 size=       1KiB time=00:00:02.46 bitrate=   2.3kbits/s speed=0.166x elapsed=0:00:14.87    \nframe=  152 fps=9.8 q=39.0 size=       1KiB time=00:00:02.51 bitrate=   2.3kbits/s speed=0.163x elapsed=0:00:15.44    \nframe=  157 fps=9.8 q=37.0 size=       1KiB time=00:00:02.58 bitrate=   2.2kbits/s speed=0.161x elapsed=0:00:16.01    \nframe=  162 fps=9.8 q=37.0 size=       1KiB time=00:00:02.68 bitrate=   2.1kbits/s speed=0.162x elapsed=0:00:16.57    \nframe=  166 fps=9.6 q=38.0 size=       1KiB time=00:00:02.73 bitrate=   2.1kbits/s speed=0.159x elapsed=0:00:17.21    \nframe=  169 fps=9.5 q=31.0 size=       1KiB time=00:00:02.80 bitrate=   2.0kbits/s speed=0.158x elapsed=0:00:17.77    \nframe=  173 fps=9.4 q=35.0 size=       1KiB time=00:00:02.86 bitrate=   2.0kbits/s speed=0.156x elapsed=0:00:18.39    \nframe=  181 fps=9.5 q=35.0 size=       1KiB time=00:00:03.00 bitrate=   1.9kbits/s speed=0.158x elapsed=0:00:19.02    \nframe=  187 fps=9.6 q=36.0 size=       1KiB time=00:00:03.10 bitrate=   1.8kbits/s speed=0.159x elapsed=0:00:19.54    \nframe=  193 fps=9.6 q=23.0 size=       1KiB time=00:00:03.18 bitrate=   1.8kbits/s speed=0.159x elapsed=0:00:20.06    \nframe=  199 fps=9.6 q=37.0 size=       1KiB time=00:00:03.30 bitrate=   1.7kbits/s speed=0.16x elapsed=0:00:20.63    \nframe=  207 fps=9.8 q=35.0 size=       1KiB time=00:00:03.43 bitrate=   1.7kbits/s speed=0.162x elapsed=0:00:21.19    \nframe=  215 fps=9.9 q=37.0 size=       1KiB time=00:00:03.56 bitrate=   1.6kbits/s speed=0.164x elapsed=0:00:21.76    \nframe=  221 fps=9.9 q=35.0 size=       1KiB time=00:00:03.66 bitrate=   1.6kbits/s speed=0.164x elapsed=0:00:22.29    \nframe=  227 fps=9.9 q=37.0 size=       1KiB time=00:00:03.76 bitrate=   1.5kbits/s speed=0.165x elapsed=0:00:22.83    \nframe=  237 fps= 10 q=31.0 size=       1KiB time=00:00:03.93 bitrate=   1.4kbits/s speed=0.168x elapsed=0:00:23.36    \nframe=  249 fps= 10 q=31.0 size=       1KiB time=00:00:04.13 bitrate=   1.4kbits/s speed=0.173x elapsed=0:00:23.89    \nframe=  257 fps= 11 q=22.0 size=       1KiB time=00:00:04.26 bitrate=   1.3kbits/s speed=0.175x elapsed=0:00:24.39    \nframe=  267 fps= 11 q=38.0 size=       1KiB time=00:00:04.43 bitrate=   1.3kbits/s speed=0.178x elapsed=0:00:24.91    \nframe=  277 fps= 11 q=36.0 size=       1KiB time=00:00:04.60 bitrate=   1.2kbits/s speed=0.181x elapsed=0:00:25.42    \nframe=  287 fps= 11 q=40.0 size=       1KiB time=00:00:04.76 bitrate=   1.2kbits/s speed=0.184x elapsed=0:00:25.94    \n[out#0/matroska @ 0000023747d99000] video:897KiB audio:0KiB subtitle:0KiB other streams:0KiB global headers:0KiB muxing overhead: 0.228004%\nframe=  300 fps= 11 q=41.0 Lsize=     899KiB time=00:00:04.98 bitrate=1478.4kbits/s speed=0.191x elapsed=0:00:26.08    \n",
  "seconds": 26.59438967704773,
  "probe_out": {}
}